<svg width="512" height="512" viewBox="0 0 512 512" fill="none" xmlns="http://www.w3.org/2000/svg">
  <defs>
    <linearGradient id="bg" x1="70" y1="48" x2="460" y2="460" gradientUnits="userSpaceOnUse">
      <stop stop-color="#F59E0B"/>
      <stop offset="1" stop-color="#D97706"/>
    </linearGradient>
  </defs>
  <rect x="48" y="48" width="416" height="416" rx="92" fill="url(#bg)"/>
  <rect x="136" y="170" width="240" height="210" rx="34" fill="#FFF7ED"/>
  <path d="M196 184C196 151.967 221.967 126 254 126H258C290.033 126 316 151.967 316 184V203H196V184Z" stroke="#B45309" stroke-width="12"/>
  <rect x="164" y="222" width="184" height="14" rx="7" fill="#FDBA74"/>
  <rect x="164" y="248" width="148" height="14" rx="7" fill="#FDBA74"/>
  <rect x="164" y="274" width="168" height="14" rx="7" fill="#FDBA74"/>
  <rect x="164" y="300" width="120" height="14" rx="7" fill="#FDBA74"/>
  <rect x="314" y="300" width="34" height="34" rx="10" fill="#B45309"/>
  <ellipse cx="256" cy="432" rx="84" ry="12" fill="#92400E" fill-opacity="0.35"/>
</svg>
